<?xml version="1.0" encoding="UTF-8" standalone="no"?>
<svg
   xmlns:dc="http://purl.org/dc/elements/1.1/"
   xmlns:cc="http://creativecommons.org/ns#"
   xmlns:rdf="http://www.w3.org/1999/02/22-rdf-syntax-ns#"
   xmlns:svg="http://www.w3.org/2000/svg"
   xmlns="http://www.w3.org/2000/svg"
   xmlns:sodipodi="http://sodipodi.sourceforge.net/DTD/sodipodi-0.dtd"
   xmlns:inkscape="http://www.inkscape.org/namespaces/inkscape"
   width="800"
   height="800"
   viewBox="0 0 211.66666 211.66667"
   version="1.1"
   id="svg8"
   inkscape:version="1.0.2 (e86c870879, 2021-01-15)"
   sodipodi:docname="overwitch.svg">
  <title
     id="title948">overwitch</title>
  <defs
     id="defs2" />
  <sodipodi:namedview
     id="base"
     pagecolor="#ffffff"
     bordercolor="#666666"
     borderopacity="1.0"
     inkscape:pageopacity="0.0"
     inkscape:pageshadow="2"
     inkscape:zoom="22.627417"
     inkscape:cx="214.54859"
     inkscape:cy="153.71532"
     inkscape:document-units="px"
     inkscape:current-layer="svg8"
     showgrid="true"
     units="px"
     inkscape:window-width="1680"
     inkscape:window-height="1013"
     inkscape:window-x="0"
     inkscape:window-y="0"
     inkscape:window-maximized="1"
     inkscape:document-rotation="0"
     showguides="false">
    <inkscape:grid
       type="xygrid"
       id="grid815" />
  </sodipodi:namedview>
  <metadata
     id="metadata5">
    <rdf:RDF>
      <cc:Work
         rdf:about="">
        <dc:format>image/svg+xml</dc:format>
        <dc:type
           rdf:resource="http://purl.org/dc/dcmitype/StillImage" />
        <dc:title>overwitch</dc:title>
        <cc:license
           rdf:resource="http://creativecommons.org/licenses/by-sa/4.0/" />
        <dc:creator>
          <cc:Agent>
            <dc:title>David García Goñi</dc:title>
          </cc:Agent>
        </dc:creator>
      </cc:Work>
      <cc:License
         rdf:about="http://creativecommons.org/licenses/by-sa/4.0/">
        <cc:permits
           rdf:resource="http://creativecommons.org/ns#Reproduction" />
        <cc:permits
           rdf:resource="http://creativecommons.org/ns#Distribution" />
        <cc:requires
           rdf:resource="http://creativecommons.org/ns#Notice" />
        <cc:requires
           rdf:resource="http://creativecommons.org/ns#Attribution" />
        <cc:permits
           rdf:resource="http://creativecommons.org/ns#DerivativeWorks" />
        <cc:requires
           rdf:resource="http://creativecommons.org/ns#ShareAlike" />
      </cc:License>
    </rdf:RDF>
  </metadata>
  <g
     inkscape:groupmode="layer"
     id="layer2"
     inkscape:label="shadow" />
  <g
     inkscape:label="Capa 1"
     inkscape:groupmode="layer"
     id="layer1"
     transform="translate(0,-85.333317)"
     style="display:inline" />
  <path
     id="path3413-7"
     style="fill:none;fill-opacity:1;fill-rule:evenodd;stroke:#9d1319;stroke-width:14.9936;stroke-linecap:butt;stroke-linejoin:round;stroke-miterlimit:4;stroke-dasharray:none;stroke-opacity:1"
     d="m 67.370737,32.421008 a 87.353682,87.35369 0 0 1 38.452213,-8.918402 87.353682,87.35369 0 0 1 87.35368,87.353584 v 0 a 87.353682,87.35369 0 0 1 -13.38973,46.47579" />
  <path
     id="path3463-5"
     style="fill:none;fill-opacity:1;fill-rule:evenodd;stroke:#255c9f;stroke-width:14.9936;stroke-linecap:butt;stroke-linejoin:round;stroke-miterlimit:4;stroke-dasharray:none;stroke-opacity:1"
     d="M 144.16626,189.29171 A 87.353792,87.353685 0 0 1 105.71405,198.21009 87.353792,87.353685 0 0 1 18.360258,110.8564 87.353792,87.353685 0 0 1 31.75,64.380716" />
  <path
     style="fill:#255c9f;fill-opacity:1;stroke:#255c9f;stroke-width:4.99787;stroke-linecap:butt;stroke-linejoin:round;stroke-miterlimit:4;stroke-dasharray:none;stroke-opacity:1"
     d="M 15.861126,55.879779 42.366294,82.384965 58.269409,39.976681 Z"
     id="path3508-92"
     sodipodi:nodetypes="cccc" />
  <path
     style="fill:#255c9f;stroke:#000000;stroke-width:0;stroke-linecap:butt;stroke-linejoin:miter;stroke-miterlimit:4;stroke-dasharray:none;stroke-opacity:1;fill-opacity:1"
     d="m 13.362394,47.414599 v 8.746262 h 4.997864 v -8.746262 z"
     id="path3702" />
  <path
     style="fill:#255c9f;fill-opacity:1;stroke:#000000;stroke-width:0;stroke-linecap:butt;stroke-linejoin:miter;stroke-miterlimit:4;stroke-dasharray:none;stroke-opacity:1"
     d="m 55.766398,31.485416 v 8.432387 h 4.997865 v -8.432387 z"
     id="path3702-7" />
  <path
     style="fill:#3584e4;fill-opacity:1;stroke:#3584e4;stroke-width:4.99787;stroke-linecap:butt;stroke-linejoin:round;stroke-miterlimit:4;stroke-dasharray:none;stroke-opacity:1"
     d="M 15.861124,47.4146 42.366292,73.919786 58.269407,31.5115 Z"
     id="path3508"
     sodipodi:nodetypes="cccc" />
  <path
     style="fill:#b50000;stroke:#b50000;stroke-width:0.249893px;stroke-linecap:butt;stroke-linejoin:miter;stroke-opacity:1"
     d="m 64.340608,17.427415 v 8.246476 h 4.248178 l -3.998288,-8.246476 z"
     id="path3657-8" />
  <path
     id="path3413"
     style="opacity:1;fill:none;fill-opacity:1;fill-rule:evenodd;stroke:#e01b24;stroke-width:14.9936;stroke-linecap:butt;stroke-linejoin:round;stroke-miterlimit:4;stroke-dasharray:none;stroke-opacity:1;paint-order:normal"
     d="m 67.370679,23.955826 a 87.353682,87.35369 0 0 1 38.452211,-8.918401 87.353682,87.35369 0 0 1 87.35369,87.353595 v 0 a 87.353682,87.35369 0 0 1 -13.38973,46.47578" />
  <path
     style="fill:#9d1319;fill-opacity:1;stroke:#9d1319;stroke-width:4.99787;stroke-linecap:round;stroke-linejoin:round;stroke-miterlimit:4;stroke-dasharray:none;stroke-opacity:1"
     d="m 195.78442,165.83269 -26.50517,-26.50518 -15.90312,42.40828 z"
     id="path3508-9-2"
     sodipodi:nodetypes="cccc" />
  <path
     style="fill:#005c94;stroke:#005c94;stroke-width:0.249893px;stroke-linecap:butt;stroke-linejoin:miter;stroke-opacity:1"
     d="m 147.30515,195.85106 v -8.24647 h -4.24818 l 3.99829,8.24647 z"
     id="path3657" />
  <path
     id="path3463"
     style="opacity:1;fill:none;fill-opacity:1;fill-rule:evenodd;stroke:#3584e4;stroke-width:14.9936;stroke-linecap:butt;stroke-linejoin:round;stroke-miterlimit:4;stroke-dasharray:none;stroke-opacity:1"
     d="M 144.16626,180.82653 A 87.353792,87.353685 0 0 1 105.71405,189.74491 87.353792,87.353685 0 0 1 18.360258,102.39122 87.353792,87.353685 0 0 1 31.75,55.915531" />
  <path
     style="fill:#9d1319;fill-opacity:1;stroke:#9d1319;stroke-width:0;stroke-linecap:butt;stroke-linejoin:miter;stroke-miterlimit:4;stroke-dasharray:none;stroke-opacity:1"
     d="m 150.8698,173.08865 v 8.74626 h 4.99786 v -8.74626 z"
     id="path3702-3" />
  <path
     style="fill:#9d1319;stroke:#9d1319;stroke-width:0;stroke-linecap:butt;stroke-linejoin:miter;stroke-miterlimit:4;stroke-dasharray:none;stroke-opacity:1;fill-opacity:1"
     d="m 193.28551,157.36751 v 8.74627 h 4.99786 v -8.74627 z"
     id="path3702-6" />
  <path
     style="fill:#e01b24;fill-opacity:1;stroke:#e01b24;stroke-width:4.99787;stroke-linecap:round;stroke-linejoin:round;stroke-miterlimit:4;stroke-dasharray:none;stroke-opacity:1"
     d="m 195.78443,157.36751 -26.50516,-26.50518 -15.90312,42.40828 z"
     id="path3508-9"
     sodipodi:nodetypes="cccc" />
  <path
     d="m 165.99299,114.15099 -13.23896,-7.6454 v 5.45385 H 85.086055 L 98.261776,98.03926 c 1.121304,-0.898769 2.588414,-1.529271 4.097594,-1.564196 6.10526,0 9.73085,-0.0016 11.06541,-0.0042 0.90461,2.577233 3.33454,4.437496 6.22326,4.437496 3.65443,0 6.62014,-2.965364 6.62014,-6.621102 0,-3.657335 -2.96545,-6.621727 -6.62014,-6.621727 -2.88872,0 -5.31865,1.859227 -6.22326,4.434417 l -10.93576,-0.0019 c -2.963859,0 -6.069538,1.626129 -8.04624,3.532452 0.05398,-0.05662 0.110067,-0.116946 -0.0032,0.0011 -0.0418,0.0471 -13.978996,14.76736 -13.978996,14.76736 -1.118922,0.89747 -2.585243,1.524 -4.093368,1.55998 h -7.654925 c -1.014677,-5.05698 -5.480315,-8.86698 -10.837069,-8.86698 -6.107377,0 -11.057995,4.95062 -11.057995,11.05615 0,6.10737 4.950618,11.05826 11.057995,11.05826 5.357813,0 9.82345,-3.81318 10.838127,-8.87439 h 7.520781 c 0.01931,0 0.03863,0.001 0.05821,0 h 16.634618 c 1.505215,0.0384 2.969684,0.66569 4.087548,1.56421 0,0 13.934014,14.7193 13.977144,14.76693 0.11165,0.11827 0.0561,0.0566 10e-4,0.001 1.9767,1.90606 5.0837,3.53113 8.04809,3.53113 l 10.53888,-0.002 v 4.43891 H 142.822 v -13.24142 h -13.24239 v 4.43309 c 0,0 -2.77575,-0.005 -10.668,-0.005 -1.50945,-0.0347 -2.97815,-0.66437 -4.09893,-1.56315 l -13.17863,-13.92294 h 51.11988 v 5.46259 z"
     id="path1334-2"
     style="fill:#2d2d2d;fill-opacity:1;stroke-width:0.264583" />
  <path
     style="fill:#2d2d2d;stroke:none;stroke-width:1.35893px;stroke-linecap:butt;stroke-linejoin:miter;stroke-opacity:1"
     d="m 46.83125,105.73647 v 8.3873 l 119.14187,-4e-5 v -8.38726 z"
     id="path4554"
     sodipodi:nodetypes="ccccc" />
  <path
     style="fill:#2d2d2d;fill-opacity:1;stroke:none;stroke-width:0;stroke-linecap:butt;stroke-linejoin:miter;stroke-miterlimit:4;stroke-dasharray:none;stroke-opacity:1"
     d="m 97.895832,107.50918 18.520838,18.52084 h 14.55208 v 9.26041 H 116.41667 L 97.895832,116.7696 Z"
     id="path4578" />
  <path
     style="fill:#2d2d2d;stroke:none;stroke-width:0;stroke-linecap:butt;stroke-linejoin:miter;stroke-miterlimit:4;stroke-dasharray:none;stroke-opacity:1"
     d="m 83.343749,102.21752 15.875,-16.404073 h 27.040421 v 8.863542 H 99.218749 l -11.90625,12.832191 -3.96875,-5.29166"
     id="path4576"
     sodipodi:nodetypes="ccccccc" />
  <path
     d="m 165.99299,105.73248 -13.23896,-7.645323 v 5.453773 H 85.086055 L 98.261776,89.620775 c 1.121304,-0.898789 2.588414,-1.529291 4.097594,-1.564216 6.10526,0 9.73085,-0.0016 11.06541,-0.0042 0.90461,2.577306 3.33454,4.437592 6.22326,4.437592 3.65443,0 6.62014,-2.96545 6.62014,-6.621198 0,-3.657335 -2.96545,-6.621727 -6.62014,-6.621727 -2.88872,0 -5.31865,1.859227 -6.22326,4.434417 l -10.93576,-0.0019 c -2.963859,0 -6.069538,1.626129 -8.04624,3.532452 0.05398,-0.05662 0.110067,-0.116946 -0.0032,0.0011 -0.0418,0.0471 -13.978996,14.767355 -13.978996,14.767355 -1.118922,0.89747 -2.585243,1.524 -4.093368,1.55998 h -7.654925 c -1.014677,-5.056917 -5.480315,-8.866879 -10.837069,-8.866879 -6.107377,0 -11.057995,4.950529 -11.057995,11.056049 0,6.10737 4.950618,11.05826 11.057995,11.05826 5.357813,0 9.82345,-3.81318 10.838127,-8.87439 h 7.520781 c 0.01931,0 0.03863,10e-4 0.05821,0 h 16.634618 c 1.505215,0.0384 2.969684,0.66569 4.087548,1.56421 0,0 13.934014,14.7193 13.977144,14.76693 0.11165,0.11827 0.0561,0.0566 10e-4,0.001 1.9767,1.90606 5.0837,3.53113 8.04809,3.53113 l 10.53888,-0.002 v 4.43891 H 142.822 v -13.24142 h -13.24239 v 4.43309 c 0,0 -2.77575,-0.005 -10.668,-0.005 -1.50945,-0.0347 -2.97815,-0.66437 -4.09893,-1.56315 l -13.17863,-13.92294 h 51.11988 v 5.46259 z"
     id="path1334"
     style="fill:#666666;fill-opacity:1;stroke-width:0.264583" />
</svg>
